<?xml version="1.0" encoding="UTF-8" standalone="no"?>
<svg
   xmlns:dc="http://purl.org/dc/elements/1.1/"
   xmlns:cc="http://creativecommons.org/ns#"
   xmlns:rdf="http://www.w3.org/1999/02/22-rdf-syntax-ns#"
   xmlns:svg="http://www.w3.org/2000/svg"
   xmlns="http://www.w3.org/2000/svg"
   xmlns:xlink="http://www.w3.org/1999/xlink"
   xmlns:sodipodi="http://sodipodi.sourceforge.net/DTD/sodipodi-0.dtd"
   xmlns:inkscape="http://www.inkscape.org/namespaces/inkscape"
   version="1.1"
   preserveAspectRatio="xMidYMid meet"
   viewBox="0 0 640 640"
   width="640"
   height="640"
   id="svg5200"
   sodipodi:docname="priorOtg_8_ink.svg"
   inkscape:version="0.92.3 (2405546, 2018-03-11)">
  <metadata
     id="metadata5204">
    <rdf:RDF>
      <cc:Work
         rdf:about="">
        <dc:format>image/svg+xml</dc:format>
        <dc:type
           rdf:resource="http://purl.org/dc/dcmitype/StillImage" />
        <dc:title></dc:title>
      </cc:Work>
    </rdf:RDF>
  </metadata>
  <sodipodi:namedview
     pagecolor="#ffffff"
     bordercolor="#666666"
     borderopacity="1"
     objecttolerance="10"
     gridtolerance="10"
     guidetolerance="10"
     inkscape:pageopacity="0"
     inkscape:pageshadow="2"
     inkscape:window-width="1366"
     inkscape:window-height="705"
     id="namedview5202"
     showgrid="false"
     inkscape:pagecheckerboard="true"
     inkscape:zoom="0.36875"
     inkscape:cx="320"
     inkscape:cy="320"
     inkscape:window-x="-8"
     inkscape:window-y="-8"
     inkscape:window-maximized="1"
     inkscape:current-layer="svg5200" />
  <defs
     id="defs4954">
    <path
       d="M0 320C0 496.73 143.27 640 320 640C496.73 640 640 496.73 640 320C640 143.27 496.73 0 320 0C143.27 0 0 143.27 0 320Z"
       id="a21zVdQTuo" />
    <path
       d="M0 320C0 496.73 143.27 640 320 640C496.73 640 640 496.73 640 320C640 143.27 496.73 0 320 0C143.27 0 0 143.27 0 320Z"
       id="bn4TpC4ho" />
    <path
       d="M481.53 269.43L320 177.12L260.02 211.41L158.47 269.43L146.95 269.43L146.95 287.88L181.01 321.95L181.01 425.94L158.47 425.94L158.47 444.43L146.95 444.43C146.95 455.5 146.95 461.65 146.95 462.88C253.16 569.09 312.16 628.09 323.97 639.9C469.55 638.12 591.66 539.18 628.53 404.89C610.46 386.83 565.3 341.68 493.05 269.43C491.51 269.43 487.67 269.43 481.53 269.43Z"
       id="a1botiKZGZ" />
    <path
       d="M481.53 269.43L320 177.12L260.02 211.41L158.47 269.43L146.95 269.43L146.95 287.88L181.01 321.95L181.01 425.94L158.47 425.94L158.47 444.43L146.95 444.43C146.95 455.5 146.95 461.65 146.95 462.88C253.16 569.09 312.16 628.09 323.97 639.9C469.55 638.12 591.66 539.18 628.53 404.89C610.46 386.83 565.3 341.68 493.05 269.43C491.51 269.43 487.67 269.43 481.53 269.43Z"
       id="d5nklOnIn1" />
    <path
       d="M481.54 425.95C481.54 437.03 481.54 443.19 481.54 444.42C481.54 444.42 481.54 444.42 481.54 444.42C287.71 444.42 180.03 444.42 158.5 444.42C158.5 444.42 158.5 444.42 158.5 444.42C158.5 433.34 158.5 427.18 158.5 425.95C158.5 425.95 158.5 425.95 158.5 425.95C352.32 425.95 460 425.95 481.54 425.95C481.54 425.95 481.54 425.95 481.54 425.95Z"
       id="e9zJYlwx9" />
    <path
       d="M481.54 425.95C481.54 437.03 481.54 443.19 481.54 444.42C481.54 444.42 481.54 444.42 481.54 444.42C287.71 444.42 180.03 444.42 158.5 444.42C158.5 444.42 158.5 444.42 158.5 444.42C158.5 433.34 158.5 427.18 158.5 425.95C158.5 425.95 158.5 425.95 158.5 425.95C352.32 425.95 460 425.95 481.54 425.95C481.54 425.95 481.54 425.95 481.54 425.95Z"
       id="daKIERkdJ" />
    <path
       d="M493.06 444.42C493.06 455.49 493.06 461.64 493.06 462.87C493.06 462.87 493.06 462.87 493.06 462.87C285.4 462.87 170.02 462.87 146.95 462.87C146.95 462.87 146.95 462.87 146.95 462.87C146.95 451.8 146.95 445.65 146.95 444.42C146.95 444.42 146.95 444.42 146.95 444.42C354.62 444.42 469.99 444.42 493.06 444.42C493.06 444.42 493.06 444.42 493.06 444.42Z"
       id="a167RUEGs" />
    <path
       d="M493.06 444.42C493.06 455.49 493.06 461.64 493.06 462.87C493.06 462.87 493.06 462.87 493.06 462.87C285.4 462.87 170.02 462.87 146.95 462.87C146.95 462.87 146.95 462.87 146.95 462.87C146.95 451.8 146.95 445.65 146.95 444.42C146.95 444.42 146.95 444.42 146.95 444.42C354.62 444.42 469.99 444.42 493.06 444.42C493.06 444.42 493.06 444.42 493.06 444.42Z"
       id="b76HMky2oE" />
    <path
       d="M493.06 269.41C493.06 280.47 493.06 286.61 493.06 287.84C493.06 287.84 493.06 287.84 493.06 287.84C285.4 287.84 170.02 287.84 146.95 287.84C146.95 287.84 146.95 287.84 146.95 287.84C146.95 276.78 146.95 270.64 146.95 269.41C146.95 269.41 146.95 269.41 146.95 269.41C354.62 269.41 469.99 269.41 493.06 269.41C493.06 269.41 493.06 269.41 493.06 269.41Z"
       id="hE4IbAjJl" />
    <path
       d="M493.06 269.41C493.06 280.47 493.06 286.61 493.06 287.84C493.06 287.84 493.06 287.84 493.06 287.84C285.4 287.84 170.02 287.84 146.95 287.84C146.95 287.84 146.95 287.84 146.95 287.84C146.95 276.78 146.95 270.64 146.95 269.41C146.95 269.41 146.95 269.41 146.95 269.41C354.62 269.41 469.99 269.41 493.06 269.41C493.06 269.41 493.06 269.41 493.06 269.41Z"
       id="b3OmZeT1pM" />
    <path
       d="M206.37 287.87C206.37 370.74 206.37 416.78 206.37 425.99C206.37 425.99 206.37 425.99 206.37 425.99C191.14 425.99 182.68 425.99 180.99 425.99C180.99 425.99 180.99 425.99 180.99 425.99C180.99 343.12 180.99 297.08 180.99 287.87C180.99 287.87 180.99 287.87 180.99 287.87C196.22 287.87 204.68 287.87 206.37 287.87C206.37 287.87 206.37 287.87 206.37 287.87Z"
       id="o226nSazC" />
    <path
       d="M206.37 287.87C206.37 370.74 206.37 416.78 206.37 425.99C206.37 425.99 206.37 425.99 206.37 425.99C191.14 425.99 182.68 425.99 180.99 425.99C180.99 425.99 180.99 425.99 180.99 425.99C180.99 343.12 180.99 297.08 180.99 287.87C180.99 287.87 180.99 287.87 180.99 287.87C196.22 287.87 204.68 287.87 206.37 287.87C206.37 287.87 206.37 287.87 206.37 287.87Z"
       id="a6xvPAUXi" />
    <path
       d="M212.14 287.87C212.14 299 212.14 305.18 212.14 306.41C212.14 306.41 212.14 306.41 212.14 306.41C189.99 306.41 177.69 306.41 175.23 306.41C175.23 306.41 175.23 306.41 175.23 306.41C175.23 295.29 175.23 289.11 175.23 287.87C175.23 287.87 175.23 287.87 175.23 287.87C197.37 287.87 209.68 287.87 212.14 287.87C212.14 287.87 212.14 287.87 212.14 287.87Z"
       id="b1dMmG1ArY" />
    <path
       d="M212.14 287.87C212.14 299 212.14 305.18 212.14 306.41C212.14 306.41 212.14 306.41 212.14 306.41C189.99 306.41 177.69 306.41 175.23 306.41C175.23 306.41 175.23 306.41 175.23 306.41C175.23 295.29 175.23 289.11 175.23 287.87C175.23 287.87 175.23 287.87 175.23 287.87C197.37 287.87 209.68 287.87 212.14 287.87C212.14 287.87 212.14 287.87 212.14 287.87Z"
       id="b5YGMZwAhw" />
    <path
       d="M290.58 287.87C290.58 370.74 290.58 416.78 290.58 425.99C290.58 425.99 290.58 425.99 290.58 425.99C275.34 425.99 266.88 425.99 265.18 425.99C265.18 425.99 265.18 425.99 265.18 425.99C265.18 343.12 265.18 297.08 265.18 287.87C265.18 287.87 265.18 287.87 265.18 287.87C280.42 287.87 288.89 287.87 290.58 287.87C290.58 287.87 290.58 287.87 290.58 287.87Z"
       id="a3IA6KN6Rc" />
    <path
       d="M290.58 287.87C290.58 370.74 290.58 416.78 290.58 425.99C290.58 425.99 290.58 425.99 290.58 425.99C275.34 425.99 266.88 425.99 265.18 425.99C265.18 425.99 265.18 425.99 265.18 425.99C265.18 343.12 265.18 297.08 265.18 287.87C265.18 287.87 265.18 287.87 265.18 287.87C280.42 287.87 288.89 287.87 290.58 287.87C290.58 287.87 290.58 287.87 290.58 287.87Z"
       id="cG5qWL2Zs" />
    <path
       d="M296.36 287.87C296.36 299 296.36 305.18 296.36 306.41C296.36 306.41 296.36 306.41 296.36 306.41C274.22 306.41 261.92 306.41 259.46 306.41C259.46 306.41 259.46 306.41 259.46 306.41C259.46 295.29 259.46 289.11 259.46 287.87C259.46 287.87 259.46 287.87 259.46 287.87C281.6 287.87 293.9 287.87 296.36 287.87C296.36 287.87 296.36 287.87 296.36 287.87Z"
       id="b58VSPRII" />
    <path
       d="M296.36 287.87C296.36 299 296.36 305.18 296.36 306.41C296.36 306.41 296.36 306.41 296.36 306.41C274.22 306.41 261.92 306.41 259.46 306.41C259.46 306.41 259.46 306.41 259.46 306.41C259.46 295.29 259.46 289.11 259.46 287.87C259.46 287.87 259.46 287.87 259.46 287.87C281.6 287.87 293.9 287.87 296.36 287.87C296.36 287.87 296.36 287.87 296.36 287.87Z"
       id="e3l8WJOw27" />
    <path
       d="M374.81 287.87C374.81 370.74 374.81 416.78 374.81 425.99C374.81 425.99 374.81 425.99 374.81 425.99C359.59 425.99 351.13 425.99 349.44 425.99C349.44 425.99 349.44 425.99 349.44 425.99C349.44 343.12 349.44 297.08 349.44 287.87C349.44 287.87 349.44 287.87 349.44 287.87C364.66 287.87 373.12 287.87 374.81 287.87C374.81 287.87 374.81 287.87 374.81 287.87Z"
       id="a2Y649MyAY" />
    <path
       d="M374.81 287.87C374.81 370.74 374.81 416.78 374.81 425.99C374.81 425.99 374.81 425.99 374.81 425.99C359.59 425.99 351.13 425.99 349.44 425.99C349.44 425.99 349.44 425.99 349.44 425.99C349.44 343.12 349.44 297.08 349.44 287.87C349.44 287.87 349.44 287.87 349.44 287.87C364.66 287.87 373.12 287.87 374.81 287.87C374.81 287.87 374.81 287.87 374.81 287.87Z"
       id="a4k7inXvpN" />
    <path
       d="M380.56 287.87C380.56 299 380.56 305.18 380.56 306.41C380.56 306.41 380.56 306.41 380.56 306.41C358.41 306.41 346.11 306.41 343.65 306.41C343.65 306.41 343.65 306.41 343.65 306.41C343.65 295.29 343.65 289.11 343.65 287.87C343.65 287.87 343.65 287.87 343.65 287.87C365.8 287.87 378.1 287.87 380.56 287.87C380.56 287.87 380.56 287.87 380.56 287.87Z"
       id="e1leRlasQ7" />
    <path
       d="M380.56 287.87C380.56 299 380.56 305.18 380.56 306.41C380.56 306.41 380.56 306.41 380.56 306.41C358.41 306.41 346.11 306.41 343.65 306.41C343.65 306.41 343.65 306.41 343.65 306.41C343.65 295.29 343.65 289.11 343.65 287.87C343.65 287.87 343.65 287.87 343.65 287.87C365.8 287.87 378.1 287.87 380.56 287.87C380.56 287.87 380.56 287.87 380.56 287.87Z"
       id="bJx2ncoXp" />
    <path
       d="M459.01 287.87C459.01 370.74 459.01 416.78 459.01 425.99C459.01 425.99 459.01 425.99 459.01 425.99C443.78 425.99 435.32 425.99 433.63 425.99C433.63 425.99 433.63 425.99 433.63 425.99C433.63 343.12 433.63 297.08 433.63 287.87C433.63 287.87 433.63 287.87 433.63 287.87C448.86 287.87 457.32 287.87 459.01 287.87C459.01 287.87 459.01 287.87 459.01 287.87Z"
       id="a4QV67TkV8" />
    <path
       d="M459.01 287.87C459.01 370.74 459.01 416.78 459.01 425.99C459.01 425.99 459.01 425.99 459.01 425.99C443.78 425.99 435.32 425.99 433.63 425.99C433.63 425.99 433.63 425.99 433.63 425.99C433.63 343.12 433.63 297.08 433.63 287.87C433.63 287.87 433.63 287.87 433.63 287.87C448.86 287.87 457.32 287.87 459.01 287.87C459.01 287.87 459.01 287.87 459.01 287.87Z"
       id="a5tXkeBF3f" />
    <path
       d="M464.78 287.87C464.78 299 464.78 305.18 464.78 306.41C464.78 306.41 464.78 306.41 464.78 306.41C442.64 306.41 430.33 306.41 427.87 306.41C427.87 306.41 427.87 306.41 427.87 306.41C427.87 295.29 427.87 289.11 427.87 287.87C427.87 287.87 427.87 287.87 427.87 287.87C450.02 287.87 462.32 287.87 464.78 287.87C464.78 287.87 464.78 287.87 464.78 287.87Z"
       id="b1ujxtEtqA" />
    <path
       d="M464.78 287.87C464.78 299 464.78 305.18 464.78 306.41C464.78 306.41 464.78 306.41 464.78 306.41C442.64 306.41 430.33 306.41 427.87 306.41C427.87 306.41 427.87 306.41 427.87 306.41C427.87 295.29 427.87 289.11 427.87 287.87C427.87 287.87 427.87 287.87 427.87 287.87C450.02 287.87 462.32 287.87 464.78 287.87C464.78 287.87 464.78 287.87 464.78 287.87Z"
       id="d67ErBIVl" />
    <path
       d="M481.52 269.42L320 177.12L158.49 269.42L481.52 269.42Z"
       id="a3asHf35vT" />
    <path
       d="M481.52 269.42L320 177.12L158.49 269.42L481.52 269.42Z"
       id="e9u10jiO" />
    <path
       d="M412 250.95L228 250.95L320 198.39L412 250.95Z"
       id="d1CdDIg2DU" />
    <path
       d="M412 250.95L228 250.95L320 198.39L412 250.95Z"
       id="ayyjxv1CT" />
  </defs>
  <g
     id="g5198">
    <g
       id="g5196">
      <g
         id="g4962">
        <use
           xlink:href="#a21zVdQTuo"
           opacity="1"
           fill="#dddddd"
           fill-opacity="1"
           id="use4956" />
        <g
           id="g4960">
          <use
             xlink:href="#a21zVdQTuo"
             opacity="1"
             fill-opacity="0"
             stroke="#000000"
             stroke-width="1"
             stroke-opacity="0"
             id="use4958" />
        </g>
      </g>
      <g
         id="g4970">
        <use
           xlink:href="#bn4TpC4ho"
           opacity="1"
           fill="#fffdba"
           fill-opacity="1"
           id="use4964" />
        <g
           id="g4968">
          <use
             xlink:href="#bn4TpC4ho"
             opacity="1"
             fill-opacity="0"
             stroke="#000000"
             stroke-width="1"
             stroke-opacity="0"
             id="use4966" />
        </g>
      </g>
      <g
         id="g4978">
        <use
           xlink:href="#a1botiKZGZ"
           opacity="1"
           fill="#b0afaf"
           fill-opacity="1"
           id="use4972" />
        <g
           id="g4976">
          <use
             xlink:href="#a1botiKZGZ"
             opacity="1"
             fill-opacity="0"
             stroke="#000000"
             stroke-width="1"
             stroke-opacity="0"
             id="use4974" />
        </g>
      </g>
      <g
         id="g4986">
        <use
           xlink:href="#d5nklOnIn1"
           opacity="1"
           fill="#ccca91"
           fill-opacity="1"
           id="use4980" />
        <g
           id="g4984">
          <use
             xlink:href="#d5nklOnIn1"
             opacity="1"
             fill-opacity="0"
             stroke="#000000"
             stroke-width="1"
             stroke-opacity="0"
             id="use4982" />
        </g>
      </g>
      <g
         id="g4994">
        <use
           xlink:href="#e9zJYlwx9"
           opacity="1"
           fill="#e1effa"
           fill-opacity="1"
           id="use4988" />
        <g
           id="g4992">
          <use
             xlink:href="#e9zJYlwx9"
             opacity="1"
             fill-opacity="0"
             stroke="#000000"
             stroke-width="1"
             stroke-opacity="0"
             id="use4990" />
        </g>
      </g>
      <g
         id="g5002">
        <use
           xlink:href="#daKIERkdJ"
           opacity="1"
           fill="#000000"
           fill-opacity="0"
           id="use4996" />
        <g
           id="g5000">
          <use
             xlink:href="#daKIERkdJ"
             opacity="1"
             fill-opacity="0"
             stroke="#000000"
             stroke-width="1"
             stroke-opacity="0"
             id="use4998" />
        </g>
      </g>
      <g
         id="g5010">
        <use
           xlink:href="#a167RUEGs"
           opacity="1"
           fill="#ffffff"
           fill-opacity="1"
           id="use5004" />
        <g
           id="g5008">
          <use
             xlink:href="#a167RUEGs"
             opacity="1"
             fill-opacity="0"
             stroke="#000000"
             stroke-width="1"
             stroke-opacity="0"
             id="use5006" />
        </g>
      </g>
      <g
         id="g5018">
        <use
           xlink:href="#b76HMky2oE"
           opacity="1"
           fill="#000000"
           fill-opacity="0"
           id="use5012" />
        <g
           id="g5016">
          <use
             xlink:href="#b76HMky2oE"
             opacity="1"
             fill-opacity="0"
             stroke="#000000"
             stroke-width="1"
             stroke-opacity="0"
             id="use5014" />
        </g>
      </g>
      <g
         id="g5026">
        <use
           xlink:href="#hE4IbAjJl"
           opacity="1"
           fill="#ffffff"
           fill-opacity="1"
           id="use5020" />
        <g
           id="g5024">
          <use
             xlink:href="#hE4IbAjJl"
             opacity="1"
             fill-opacity="0"
             stroke="#000000"
             stroke-width="1"
             stroke-opacity="0"
             id="use5022" />
        </g>
      </g>
      <g
         id="g5034">
        <use
           xlink:href="#b3OmZeT1pM"
           opacity="1"
           fill="#000000"
           fill-opacity="0"
           id="use5028" />
        <g
           id="g5032">
          <use
             xlink:href="#b3OmZeT1pM"
             opacity="1"
             fill-opacity="0"
             stroke="#000000"
             stroke-width="1"
             stroke-opacity="0"
             id="use5030" />
        </g>
      </g>
      <g
         id="g5042">
        <use
           xlink:href="#o226nSazC"
           opacity="1"
           fill="#ffffff"
           fill-opacity="1"
           id="use5036" />
        <g
           id="g5040">
          <use
             xlink:href="#o226nSazC"
             opacity="1"
             fill-opacity="0"
             stroke="#000000"
             stroke-width="1"
             stroke-opacity="0"
             id="use5038" />
        </g>
      </g>
      <g
         id="g5050">
        <use
           xlink:href="#a6xvPAUXi"
           opacity="1"
           fill="#000000"
           fill-opacity="0"
           id="use5044" />
        <g
           id="g5048">
          <use
             xlink:href="#a6xvPAUXi"
             opacity="1"
             fill-opacity="0"
             stroke="#000000"
             stroke-width="1"
             stroke-opacity="0"
             id="use5046" />
        </g>
      </g>
      <g
         id="g5058">
        <use
           xlink:href="#b1dMmG1ArY"
           opacity="1"
           fill="#e1effa"
           fill-opacity="1"
           id="use5052" />
        <g
           id="g5056">
          <use
             xlink:href="#b1dMmG1ArY"
             opacity="1"
             fill-opacity="0"
             stroke="#000000"
             stroke-width="1"
             stroke-opacity="0"
             id="use5054" />
        </g>
      </g>
      <g
         id="g5066">
        <use
           xlink:href="#b5YGMZwAhw"
           opacity="1"
           fill="#000000"
           fill-opacity="0"
           id="use5060" />
        <g
           id="g5064">
          <use
             xlink:href="#b5YGMZwAhw"
             opacity="1"
             fill-opacity="0"
             stroke="#000000"
             stroke-width="1"
             stroke-opacity="0"
             id="use5062" />
        </g>
      </g>
      <g
         id="g5074">
        <use
           xlink:href="#a3IA6KN6Rc"
           opacity="1"
           fill="#ffffff"
           fill-opacity="1"
           id="use5068" />
        <g
           id="g5072">
          <use
             xlink:href="#a3IA6KN6Rc"
             opacity="1"
             fill-opacity="0"
             stroke="#000000"
             stroke-width="1"
             stroke-opacity="0"
             id="use5070" />
        </g>
      </g>
      <g
         id="g5082">
        <use
           xlink:href="#cG5qWL2Zs"
           opacity="1"
           fill="#000000"
           fill-opacity="0"
           id="use5076" />
        <g
           id="g5080">
          <use
             xlink:href="#cG5qWL2Zs"
             opacity="1"
             fill-opacity="0"
             stroke="#000000"
             stroke-width="1"
             stroke-opacity="0"
             id="use5078" />
        </g>
      </g>
      <g
         id="g5090">
        <use
           xlink:href="#b58VSPRII"
           opacity="1"
           fill="#e1effa"
           fill-opacity="1"
           id="use5084" />
        <g
           id="g5088">
          <use
             xlink:href="#b58VSPRII"
             opacity="1"
             fill-opacity="0"
             stroke="#000000"
             stroke-width="1"
             stroke-opacity="0"
             id="use5086" />
        </g>
      </g>
      <g
         id="g5098">
        <use
           xlink:href="#e3l8WJOw27"
           opacity="1"
           fill="#000000"
           fill-opacity="0"
           id="use5092" />
        <g
           id="g5096">
          <use
             xlink:href="#e3l8WJOw27"
             opacity="1"
             fill-opacity="0"
             stroke="#000000"
             stroke-width="1"
             stroke-opacity="0"
             id="use5094" />
        </g>
      </g>
      <g
         id="g5106">
        <use
           xlink:href="#a2Y649MyAY"
           opacity="1"
           fill="#ffffff"
           fill-opacity="1"
           id="use5100" />
        <g
           id="g5104">
          <use
             xlink:href="#a2Y649MyAY"
             opacity="1"
             fill-opacity="0"
             stroke="#000000"
             stroke-width="1"
             stroke-opacity="0"
             id="use5102" />
        </g>
      </g>
      <g
         id="g5114">
        <use
           xlink:href="#a4k7inXvpN"
           opacity="1"
           fill="#000000"
           fill-opacity="0"
           id="use5108" />
        <g
           id="g5112">
          <use
             xlink:href="#a4k7inXvpN"
             opacity="1"
             fill-opacity="0"
             stroke="#000000"
             stroke-width="1"
             stroke-opacity="0"
             id="use5110" />
        </g>
      </g>
      <g
         id="g5122">
        <use
           xlink:href="#e1leRlasQ7"
           opacity="1"
           fill="#e1effa"
           fill-opacity="1"
           id="use5116" />
        <g
           id="g5120">
          <use
             xlink:href="#e1leRlasQ7"
             opacity="1"
             fill-opacity="0"
             stroke="#000000"
             stroke-width="1"
             stroke-opacity="0"
             id="use5118" />
        </g>
      </g>
      <g
         id="g5130">
        <use
           xlink:href="#bJx2ncoXp"
           opacity="1"
           fill="#000000"
           fill-opacity="0"
           id="use5124" />
        <g
           id="g5128">
          <use
             xlink:href="#bJx2ncoXp"
             opacity="1"
             fill-opacity="0"
             stroke="#000000"
             stroke-width="1"
             stroke-opacity="0"
             id="use5126" />
        </g>
      </g>
      <g
         id="g5138">
        <use
           xlink:href="#a4QV67TkV8"
           opacity="1"
           fill="#ffffff"
           fill-opacity="1"
           id="use5132" />
        <g
           id="g5136">
          <use
             xlink:href="#a4QV67TkV8"
             opacity="1"
             fill-opacity="0"
             stroke="#000000"
             stroke-width="1"
             stroke-opacity="0"
             id="use5134" />
        </g>
      </g>
      <g
         id="g5146">
        <use
           xlink:href="#a5tXkeBF3f"
           opacity="1"
           fill="#000000"
           fill-opacity="0"
           id="use5140" />
        <g
           id="g5144">
          <use
             xlink:href="#a5tXkeBF3f"
             opacity="1"
             fill-opacity="0"
             stroke="#000000"
             stroke-width="1"
             stroke-opacity="0"
             id="use5142" />
        </g>
      </g>
      <g
         id="g5154">
        <use
           xlink:href="#b1ujxtEtqA"
           opacity="1"
           fill="#e1effa"
           fill-opacity="1"
           id="use5148" />
        <g
           id="g5152">
          <use
             xlink:href="#b1ujxtEtqA"
             opacity="1"
             fill-opacity="0"
             stroke="#000000"
             stroke-width="1"
             stroke-opacity="0"
             id="use5150" />
        </g>
      </g>
      <g
         id="g5162">
        <use
           xlink:href="#d67ErBIVl"
           opacity="1"
           fill="#000000"
           fill-opacity="0"
           id="use5156" />
        <g
           id="g5160">
          <use
             xlink:href="#d67ErBIVl"
             opacity="1"
             fill-opacity="0"
             stroke="#000000"
             stroke-width="1"
             stroke-opacity="0"
             id="use5158" />
        </g>
      </g>
      <g
         id="g5170">
        <use
           xlink:href="#a3asHf35vT"
           opacity="1"
           fill="#e1effa"
           fill-opacity="1"
           id="use5164" />
        <g
           id="g5168">
          <use
             xlink:href="#a3asHf35vT"
             opacity="1"
             fill-opacity="0"
             stroke="#000000"
             stroke-width="1"
             stroke-opacity="0"
             id="use5166" />
        </g>
      </g>
      <g
         id="g5178">
        <use
           xlink:href="#e9u10jiO"
           opacity="1"
           fill="#000000"
           fill-opacity="0"
           id="use5172" />
        <g
           id="g5176">
          <use
             xlink:href="#e9u10jiO"
             opacity="1"
             fill-opacity="0"
             stroke="#000000"
             stroke-width="1"
             stroke-opacity="0"
             id="use5174" />
        </g>
      </g>
      <g
         id="g5186">
        <use
           xlink:href="#d1CdDIg2DU"
           opacity="1"
           fill="#b8d1e6"
           fill-opacity="1"
           id="use5180" />
        <g
           id="g5184">
          <use
             xlink:href="#d1CdDIg2DU"
             opacity="1"
             fill-opacity="0"
             stroke="#000000"
             stroke-width="1"
             stroke-opacity="0"
             id="use5182" />
        </g>
      </g>
      <g
         id="g5194">
        <use
           xlink:href="#ayyjxv1CT"
           opacity="1"
           fill="#000000"
           fill-opacity="0"
           id="use5188" />
        <g
           id="g5192">
          <use
             xlink:href="#ayyjxv1CT"
             opacity="1"
             fill-opacity="0"
             stroke="#000000"
             stroke-width="1"
             stroke-opacity="0"
             id="use5190" />
        </g>
      </g>
    </g>
  </g>
</svg>
